<svg width="28" height="28" viewBox="0 0 28 28" fill="none" xmlns="http://www.w3.org/2000/svg">
<circle cx="14" cy="14" r="13" stroke="white" stroke-width="2"/>
<path d="M14.9158 7.56009L14.4802 9.31107L14.4382 9.47806L14.6062 9.51712C14.9252 9.58994 15.2449 9.6624 15.5554 9.73978L15.7195 9.78079L15.7605 9.61673L16.1921 7.87943L17.0535 8.09427L16.6072 9.88235L16.5701 10.0327L16.7166 10.0835C17.4584 10.3391 18.0785 10.6513 18.4861 11.062C18.8852 11.4644 19.0856 11.9661 18.9861 12.6314C18.912 13.1319 18.7387 13.4896 18.5037 13.7417C18.2685 13.9939 17.9608 14.1523 17.5984 14.2359L17.1511 14.3394L17.5583 14.5513C18.0722 14.8189 18.4377 15.1467 18.6208 15.565C18.8029 15.981 18.818 16.5162 18.5691 17.2271C18.2643 18.0981 17.7601 18.552 17.1023 18.7544C16.4291 18.9616 15.5756 18.9109 14.5681 18.7202L14.4109 18.6909L14.3728 18.8462L13.9207 20.6529L13.0623 20.438L13.5066 18.6577L13.5476 18.4937L13.3826 18.4527C13.0757 18.3765 12.762 18.2961 12.4392 18.2085L12.2722 18.1626L12.2312 18.3306L11.7839 20.1197L10.9255 19.9058L11.3767 18.0952L11.4177 17.9322L11.2546 17.8902C10.9803 17.8199 10.6944 17.7434 10.407 17.6714H10.406L9.05347 17.3335L9.50562 16.2896C9.58735 16.3111 9.69562 16.3399 9.80347 16.3677C9.91227 16.3958 10.0216 16.4242 10.1033 16.4439C10.1437 16.4536 10.1792 16.462 10.2048 16.4673C10.2168 16.4698 10.2307 16.4725 10.2429 16.4742C10.2449 16.4744 10.2507 16.4737 10.2585 16.4742C10.4596 16.5174 10.6242 16.4773 10.7488 16.3872C10.8712 16.2986 10.9387 16.1749 10.9744 16.0865L10.9792 16.0757L10.9812 16.064L11.7585 12.9488L11.7312 12.9419L11.7332 12.9331L11.7605 12.94L12.3152 10.7163L12.3191 10.7007L12.3201 10.6851C12.3286 10.5373 12.3082 10.355 12.2029 10.189C12.0984 10.0244 11.9229 9.89671 11.6619 9.82669C11.6575 9.82474 11.6544 9.82235 11.6531 9.82181C11.6405 9.8168 11.6257 9.81265 11.614 9.80911C11.5884 9.80139 11.5527 9.79121 11.5125 9.78079C11.4308 9.75968 11.3208 9.73361 11.2117 9.70755C11.1147 9.6844 11.0175 9.66133 10.9392 9.6431L11.1726 8.70462L12.488 9.03372L12.4871 9.03958L12.6472 9.07962C12.8953 9.1413 13.1506 9.19949 13.4089 9.25833L13.571 9.29544L13.6111 9.13431L14.0564 7.34622L14.9158 7.56009ZM13.2693 14.2847L12.6169 16.9009L12.5759 17.065L12.74 17.106C13.1301 17.2029 13.9765 17.4584 14.7654 17.4995C15.1605 17.5201 15.5613 17.4891 15.8933 17.3443C16.1914 17.2143 16.4305 16.9941 16.5564 16.6568L16.6033 16.5044C16.7124 16.0666 16.6089 15.6996 16.3777 15.4038C16.1526 15.116 15.8118 14.9022 15.4519 14.7388C14.7348 14.4134 13.86 14.2579 13.4744 14.1617L13.3103 14.1206L13.2693 14.2847ZM14.1599 10.7144L13.5681 13.0874L13.5271 13.2515L13.6912 13.2925C14.0127 13.3727 14.7237 13.5923 15.3894 13.6167C15.7235 13.629 16.0664 13.5931 16.3533 13.4536C16.6114 13.3281 16.8167 13.1219 16.9285 12.814L16.9705 12.6753C17.0694 12.2778 16.9907 11.9448 16.7976 11.6753C16.6098 11.4132 16.3217 11.2224 16.0193 11.0796C15.419 10.7964 14.6816 10.6702 14.365 10.5913L14.2009 10.5503L14.1599 10.7144Z" fill="white" stroke="white" stroke-width="0.338468"/>
</svg>
